<svg xmlns="http://www.w3.org/2000/svg" width="1140" height="1210" viewBox="0 0 1140 1210" role="img" aria-labelledby="title desc">
  <title id="title">dsh-price-less architecture</title>
  <desc id="desc">Layered architecture: user and DSH host on top, plugin domains, core pure logic, platform adapters (the only harness touchpoint), and data/facts at the bottom. Implemented modules are solid; planned modules (P14a/b prompt optimizer, R3 shear, R4 compaction) are dashed.</desc>

  <defs>
    <marker id="arrow" markerWidth="12" markerHeight="9" refX="0" refY="4.5" orient="auto" markerUnits="userSpaceOnUse">
      <path d="M0,0 L12,4.5 L0,9 Z" fill="#475569"/>
    </marker>
    <marker id="arrowPlanned" markerWidth="12" markerHeight="9" refX="0" refY="4.5" orient="auto" markerUnits="userSpaceOnUse">
      <path d="M0,0 L12,4.5 L0,9 Z" fill="#94a3b8"/>
    </marker>
  </defs>

  <style>
    .title { font: 700 26px system-ui, 'Segoe UI', sans-serif; fill: #0f172a; }
    .subtitle { font: 400 14px system-ui, 'Segoe UI', sans-serif; fill: #64748b; }
    .band-label { font: 700 12.5px system-ui, 'Segoe UI', sans-serif; fill: #64748b; letter-spacing: 0.08em; }
    .box-label { font: 700 14px system-ui, 'Segoe UI', sans-serif; fill: #0f172a; }
    .box-sub { font: 400 11px system-ui, 'Segoe UI', sans-serif; fill: #475569; }
    .box-file { font: 400 10.5px system-ui, 'Segoe UI', sans-serif; font-style: italic; fill: #64748b; }
    .flow-note { font: 400 11px system-ui, 'Segoe UI', sans-serif; font-style: italic; fill: #64748b; }
    .footer { font: 400 12px system-ui, 'Segoe UI', sans-serif; fill: #64748b; }
    .legend-text { font: 400 12.5px system-ui, 'Segoe UI', sans-serif; fill: #334155; }
  </style>

  <!-- ======================= TITLE + LEGEND ======================= -->
  <text class="title" x="40" y="42">dsh-price-less — architecture</text>
  <text class="subtitle" x="40" y="66">Context management plugin for DeepSeek Harness · implemented vs planned (docs/11-structure.md)</text>

  <rect x="690" y="33" width="22" height="13" rx="3" fill="#dbeafe" stroke="#2563eb"/>
  <text class="legend-text" x="718" y="44">implemented (P0–P13)</text>
  <rect x="870" y="33" width="22" height="13" rx="3" fill="#f8fafc" stroke="#94a3b8" stroke-dasharray="4 2"/>
  <text class="legend-text" x="898" y="44">planned (P14a/b · R3 · R4)</text>

  <!-- ======================= BAND 1 · USER / HOST ======================= -->
  <rect x="40" y="90" width="1060" height="170" rx="14" fill="#f8fafc" stroke="#e2e8f0"/>
  <text class="band-label" x="58" y="116">USER / DEEPSEEK HARNESS HOST</text>

  <rect x="70" y="132" width="300" height="86" rx="9" fill="#dbeafe" stroke="#2563eb" stroke-width="1.5"/>
  <text class="box-label" x="220" y="166" text-anchor="middle">User</text>
  <text class="box-sub" x="220" y="190" text-anchor="middle">slash commands · messages</text>

  <rect x="410" y="132" width="300" height="86" rx="9" fill="#dbeafe" stroke="#2563eb" stroke-width="1.5"/>
  <text class="box-label" x="560" y="166" text-anchor="middle">DSH session</text>
  <text class="box-sub" x="560" y="190" text-anchor="middle">user/message · session/event firehose (H1)</text>

  <rect x="750" y="132" width="300" height="86" rx="9" fill="#dbeafe" stroke="#2563eb" stroke-width="1.5"/>
  <text class="box-label" x="900" y="164" text-anchor="middle">Client UI</text>
  <text class="box-sub" x="900" y="186" text-anchor="middle">settings card · star-button shell</text>
  <text class="box-file" x="900" y="206" text-anchor="middle">field-model.ts (H8 / H11)</text>

  <!-- ======================= BAND 2 · DOMAINS ======================= -->
  <rect x="40" y="296" width="1060" height="184" rx="14" fill="#faf5ff" stroke="#ede9fe"/>
  <text class="band-label" x="1082" y="312" text-anchor="end">DOMAINS</text>
  <text class="box-file" x="1082" y="328" text-anchor="end">src/domains/ · orchestration</text>

  <rect x="56" y="340" width="270" height="100" rx="9" fill="#ede9fe" stroke="#7c3aed" stroke-width="1.5"/>
  <text class="box-label" x="191" y="372" text-anchor="middle">Command face</text>
  <text class="box-sub" x="191" y="394" text-anchor="middle">/task · /init · /optimize-prompt</text>
  <text class="box-file" x="191" y="424" text-anchor="middle">domains/commands.ts</text>

  <rect x="366" y="340" width="360" height="100" rx="9" fill="#ede9fe" stroke="#7c3aed" stroke-width="1.5"/>
  <text class="box-label" x="546" y="369" text-anchor="middle">Auto intent detection</text>
  <text class="box-sub" x="546" y="391" text-anchor="middle">explicit → rules → past verdicts → light model</text>
  <text class="box-sub" x="546" y="407" text-anchor="middle">gate: discriminator.auto (default: off)</text>
  <text class="box-file" x="546" y="429" text-anchor="middle">domains/input.ts</text>

  <rect x="765" y="340" width="270" height="100" rx="9" fill="#f8fafc" stroke="#94a3b8" stroke-width="1.5" stroke-dasharray="6 4"/>
  <text class="box-label" x="900" y="372" text-anchor="middle" fill="#475569">Prompt optimizer · star</text>
  <text class="box-sub" x="900" y="394" text-anchor="middle">preview → confirm → backfill</text>
  <text class="box-file" x="900" y="424" text-anchor="middle">entry registered · flow = P14a/b</text>

  <!-- ======================= BAND 3 · CORE ======================= -->
  <rect x="40" y="516" width="1060" height="260" rx="14" fill="#f0fdfa" stroke="#ccfbf1"/>
  <text class="band-label" x="1082" y="532" text-anchor="end">CORE</text>
  <text class="box-file" x="1082" y="548" text-anchor="end">src/core/ · zero harness imports</text>

  <rect x="55" y="560" width="160" height="100" rx="9" fill="#ccfbf1" stroke="#0d9488" stroke-width="1.5"/>
  <text class="box-label" x="135" y="592" text-anchor="middle">Task boundaries</text>
  <text class="box-sub" x="135" y="614" text-anchor="middle">one task = one goal</text>
  <text class="box-file" x="135" y="644" text-anchor="middle">units.ts · t0.ts</text>

  <rect x="229" y="560" width="160" height="100" rx="9" fill="#ccfbf1" stroke="#0d9488" stroke-width="1.5"/>
  <text class="box-label" x="309" y="592" text-anchor="middle">Task file</text>
  <text class="box-sub" x="309" y="614" text-anchor="middle">append-only messages</text>
  <text class="box-file" x="309" y="644" text-anchor="middle">dossier.ts</text>

  <rect x="403" y="560" width="160" height="100" rx="9" fill="#ccfbf1" stroke="#0d9488" stroke-width="1.5"/>
  <text class="box-label" x="483" y="592" text-anchor="middle">Detection criteria</text>
  <text class="box-sub" x="483" y="614" text-anchor="middle">rules first · light model</text>
  <text class="box-file" x="483" y="644" text-anchor="middle">judge.ts</text>

  <rect x="577" y="560" width="160" height="100" rx="9" fill="#ccfbf1" stroke="#0d9488" stroke-width="1.5"/>
  <text class="box-label" x="657" y="592" text-anchor="middle">Prompt optimizer</text>
  <text class="box-sub" x="657" y="614" text-anchor="middle">star input · 4 checks</text>
  <text class="box-file" x="657" y="644" text-anchor="middle">optimize.ts</text>

  <rect x="751" y="560" width="160" height="100" rx="9" fill="#ccfbf1" stroke="#0d9488" stroke-width="1.5"/>
  <text class="box-label" x="831" y="592" text-anchor="middle">Project brief</text>
  <text class="box-sub" x="831" y="614" text-anchor="middle">init capture · prefix</text>
  <text class="box-file" x="831" y="644" text-anchor="middle">init.ts · prefix.ts</text>

  <rect x="925" y="560" width="160" height="100" rx="9" fill="#ccfbf1" stroke="#0d9488" stroke-width="1.5"/>
  <text class="box-label" x="1005" y="592" text-anchor="middle">Ledger</text>
  <text class="box-sub" x="1005" y="614" text-anchor="middle">metrics · replayable</text>
  <text class="box-file" x="1005" y="644" text-anchor="middle">ledger/*</text>

  <rect x="55" y="684" width="500" height="52" rx="9" fill="#f8fafc" stroke="#94a3b8" stroke-width="1.5" stroke-dasharray="6 4"/>
  <text class="box-sub" x="305" y="715" text-anchor="middle" fill="#475569">shear (R3) — slim tool results · paired cuts</text>

  <rect x="575" y="684" width="510" height="52" rx="9" fill="#f8fafc" stroke="#94a3b8" stroke-width="1.5" stroke-dasharray="6 4"/>
  <text class="box-sub" x="830" y="715" text-anchor="middle" fill="#475569">compaction (R4) — history compression · two modes · hot-tail</text>

  <!-- ======================= BAND 4 · PLATFORM ======================= -->
  <rect x="40" y="812" width="1060" height="184" rx="14" fill="#f0fdf4" stroke="#dcfce7"/>
  <text class="band-label" x="1082" y="828" text-anchor="end">PLATFORM</text>
  <text class="box-file" x="1082" y="844" text-anchor="end">src/platform/ · the only harness touchpoint (H1–H13)</text>

  <rect x="49" y="856" width="160" height="100" rx="9" fill="#dcfce7" stroke="#16a34a" stroke-width="1.5"/>
  <text class="box-label" x="129" y="888" text-anchor="middle">events.ts</text>
  <text class="box-sub" x="129" y="910" text-anchor="middle">H1 firehose · async queue</text>
  <text class="box-sub" x="129" y="927" text-anchor="middle">never blocks append</text>

  <rect x="219" y="856" width="172" height="100" rx="9" fill="#dcfce7" stroke="#16a34a" stroke-width="1.5"/>
  <text class="box-label" x="305" y="888" text-anchor="middle">logger · diag-sink</text>
  <text class="box-sub" x="305" y="910" text-anchor="middle">ignorable facts · JSONL</text>
  <text class="box-sub" x="305" y="927" text-anchor="middle">2 MiB rolling log</text>

  <rect x="401" y="856" width="160" height="100" rx="9" fill="#dcfce7" stroke="#16a34a" stroke-width="1.5"/>
  <text class="box-label" x="481" y="888" text-anchor="middle">storage.ts</text>
  <text class="box-sub" x="481" y="910" text-anchor="middle">KV · CAS · 4 entities</text>
  <text class="box-sub" x="481" y="927" text-anchor="middle">versioned read/write</text>

  <rect x="571" y="856" width="180" height="100" rx="9" fill="#dcfce7" stroke="#16a34a" stroke-width="1.5"/>
  <text class="box-label" x="661" y="888" text-anchor="middle">history · tools</text>
  <text class="box-sub" x="661" y="910" text-anchor="middle">surfaceOp replace · run flush</text>
  <text class="box-sub" x="661" y="927" text-anchor="middle">paired-balance guard</text>

  <rect x="761" y="856" width="160" height="100" rx="9" fill="#dcfce7" stroke="#16a34a" stroke-width="1.5"/>
  <text class="box-label" x="841" y="888" text-anchor="middle">llm.ts</text>
  <text class="box-sub" x="841" y="910" text-anchor="middle">aux calls · purpose route</text>
  <text class="box-sub" x="841" y="927" text-anchor="middle">route → discriminator config</text>

  <rect x="931" y="856" width="160" height="100" rx="9" fill="#dcfce7" stroke="#16a34a" stroke-width="1.5"/>
  <text class="box-label" x="1011" y="888" text-anchor="middle">skills.ts</text>
  <text class="box-sub" x="1011" y="910" text-anchor="middle">catalog + watch</text>
  <text class="box-sub" x="1011" y="927" text-anchor="middle">prefix feed · ref guard</text>

  <!-- ======================= BAND 5 · DATA ======================= -->
  <rect x="40" y="1032" width="1060" height="120" rx="14" fill="#fffbeb" stroke="#fde68a"/>
  <text class="band-label" x="58" y="1058">DATA / FACTS</text>

  <rect x="49" y="1080" width="336" height="56" rx="9" fill="#fef3c7" stroke="#d97706" stroke-width="1.5"/>
  <text class="box-label" x="217" y="1104" text-anchor="middle" font-size="13">Durable KV — storageDomain (H10)</text>
  <text class="box-sub" x="217" y="1125" text-anchor="middle">task file · project brief · boundaries · artifacts</text>

  <rect x="399" y="1080" width="342" height="56" rx="9" fill="#fef3c7" stroke="#d97706" stroke-width="1.5"/>
  <text class="box-label" x="570" y="1104" text-anchor="middle" font-size="13">Session facts — ignorable JSONL</text>
  <text class="box-sub" x="570" y="1125" text-anchor="middle">context-economy/*: task-boundary · judge-*</text>

  <rect x="755" y="1080" width="336" height="56" rx="9" fill="#fef3c7" stroke="#d97706" stroke-width="1.5"/>
  <text class="box-label" x="923" y="1104" text-anchor="middle" font-size="13">Diagnostics log</text>
  <text class="box-sub" x="923" y="1125" text-anchor="middle">logs/context-economy.log · 2 MiB rolling</text>

  <!-- ======================= ARROWS (orthogonal polylines) ======================= -->
  <g fill="none" stroke="#475569" stroke-width="2">
    <path d="M220,218 V328" marker-end="url(#arrow)"/>
    <path d="M560,218 V328" marker-end="url(#arrow)"/>
    <path d="M145,440 V548" marker-end="url(#arrow)"/>
    <path d="M483,440 V548" marker-end="url(#arrow)"/>
    <path d="M570,776 V800" stroke-width="2.5" marker-end="url(#arrow)"/>
    <path d="M570,996 V1020" stroke-width="2.5" marker-end="url(#arrow)"/>
  </g>
  <path d="M900,218 V328" fill="none" stroke="#94a3b8" stroke-width="2" stroke-dasharray="6 4" marker-end="url(#arrowPlanned)"/>
  <path d="M900,440 V492 H657 V548" fill="none" stroke="#94a3b8" stroke-width="2" stroke-dasharray="6 4" marker-end="url(#arrowPlanned)"/>

  <text class="flow-note" x="540" y="272" text-anchor="end">H1 firehose → bypass queue (platform/events)</text>
  <text class="flow-note" x="916" y="272">star click · P14b (H11)</text>
  <text class="flow-note" x="582" y="793">core + domains reach harness state only via platform</text>
  <text class="flow-note" x="582" y="1013">persist · emit facts · log</text>

  <!-- ======================= FOOTER ======================= -->
  <text class="footer" x="40" y="1186">Solid = implemented (P0–P13) · Dashed = planned (P14a/b prompt optimizer · R3 shear · R4 compaction) · H* = harness hooks (docs/10-wiring.md)</text>
</svg>
