<svg xmlns="http://www.w3.org/2000/svg" width="1240" height="1630" viewBox="0 0 1240 1630" role="img" aria-labelledby="title desc">
  <title id="title">dsh-price-less — Architecture</title>
  <desc id="desc">Context-management plugin for DeepSeek Harness · R1–R4 fully implemented (incl. F1–F13 / P14c·d / P17c / P20c field fixes) · docs/11-structure.md</desc>

  <defs>
    <marker id="arrow" markerWidth="12" markerHeight="9" refX="0" refY="4.5" orient="auto" markerUnits="userSpaceOnUse">
      <path d="M0,0 L12,4.5 L0,9 Z" fill="#475569"/>
    </marker>
  </defs>

  <style>
    .title { font: 700 26px system-ui, 'Segoe UI', sans-serif; fill: #0f172a; }
    .subtitle { font: 400 13px system-ui, 'Segoe UI', sans-serif; fill: #64748b; }
    .band-label { font: 700 12.5px system-ui, 'Segoe UI', sans-serif; fill: #64748b; letter-spacing: 0.08em; }
    .box-label { font: 700 13.5px system-ui, 'Segoe UI', sans-serif; fill: #0f172a; }
    .box-sub { font: 400 10.5px system-ui, 'Segoe UI', sans-serif; fill: #475569; }
    .box-file { font: 400 10px system-ui, 'Segoe UI', sans-serif; font-style: italic; fill: #64748b; }
    .flow-note { font: 400 10.5px system-ui, 'Segoe UI', sans-serif; font-style: italic; fill: #64748b; }
    .footer { font: 400 11px system-ui, 'Segoe UI', sans-serif; fill: #64748b; }
    .legend-text { font: 400 12px system-ui, 'Segoe UI', sans-serif; fill: #334155; }
    .discipline { font: 600 11px system-ui, 'Segoe UI', sans-serif; fill: #7c2d12; }
  </style>

  <text class="title" x="40" y="42">dsh-price-less — Architecture</text>
  <text class="subtitle" x="40" y="66">Context-management plugin for DeepSeek Harness · R1–R4 fully implemented (incl. F1–F13 / P14c·d / P17c / P20c field fixes) · docs/11-structure.md</text>
  <rect x="694" y="33" width="22" height="13" rx="3" fill="#dbeafe" stroke="#2563eb"/>
  <text class="legend-text" x="722" y="44">implemented (R1–R4)</text>
  <rect x="896" y="33" width="22" height="13" rx="3" fill="#fffbeb" stroke="#f59e0b" stroke-dasharray="4 2"/>
  <text class="legend-text" x="924" y="44">pending validation (B / R series)</text>

  <rect x="40" y="92" width="1160" height="152" rx="14" fill="#f8fafc" stroke="#e2e8f0"/>
  <text class="band-label" x="58" y="116" text-anchor="start">USER / DEEPSEEK HARNESS HOST</text>
  <rect x="40" y="260" width="1160" height="280" rx="14" fill="#faf5ff" stroke="#ede9fe"/>
  <text class="band-label" x="1182" y="284" text-anchor="end">DOMAINS</text>
    <text class="box-file" x="56" y="300" text-anchor="start">workspace isolation: archive/prefix keys keyed by session header.cwd (F3)</text>

    <text class="box-file" x="1184" y="300" text-anchor="end">src/domains/ · orchestration (decides what to do)</text>

  <rect x="40" y="556" width="1160" height="512" rx="14" fill="#f0fdfa" stroke="#ccfbf1"/>
  <text class="band-label" x="1182" y="580" text-anchor="end">CORE</text>
    <text class="box-file" x="1184" y="596" text-anchor="end">src/core/ · pure kernel (zero harness imports; decides how to compute)</text>

  <rect x="40" y="1084" width="1160" height="232" rx="14" fill="#f0fdf4" stroke="#dcfce7"/>
  <text class="band-label" x="1182" y="1108" text-anchor="end">PLATFORM</text>
    <text class="box-file" x="1184" y="1124" text-anchor="end">src/platform/ · the only harness touchpoint (H1–H15)</text>

  <rect x="40" y="1332" width="1160" height="120" rx="14" fill="#fffbeb" stroke="#fde68a"/>
  <text class="band-label" x="58" y="1356" text-anchor="start">DATA / FACTS</text>
  <rect x="40" y="1468" width="1160" height="118" rx="14" fill="#fff7ed" stroke="#fed7aa"/>
  <text class="band-label" x="58" y="1492" text-anchor="start">PENDING VALIDATION (registered in TODO §3)</text>

  <rect x="56" y="132" width="362" height="96" rx="9" fill="#dbeafe" stroke="#2563eb" stroke-width="1.5"/>
  <text class="box-label" x="237.0" y="175.5" text-anchor="middle">User</text>
  <text class="box-sub" x="237.0" y="192.5" text-anchor="middle">slash commands · messages</text>
  <rect x="438" y="132" width="362" height="96" rx="9" fill="#dbeafe" stroke="#2563eb" stroke-width="1.5"/>
  <text class="box-label" x="619.0" y="167.0" text-anchor="middle">DSH session</text>
  <text class="box-sub" x="619.0" y="184.0" text-anchor="middle">user/message · session/event firehose</text>
  <text class="box-file" x="619.0" y="201.0" text-anchor="middle">H1</text>
  <rect x="820" y="132" width="362" height="96" rx="9" fill="#dbeafe" stroke="#2563eb" stroke-width="1.5"/>
  <text class="box-label" x="1001.0" y="167.0" text-anchor="middle">Client UI</text>
  <text class="box-sub" x="1001.0" y="184.0" text-anchor="middle">settings card · star button</text>
  <text class="box-file" x="1001.0" y="201.0" text-anchor="middle">field-model.ts (H8 / H11)</text>
  <rect x="56" y="316" width="362" height="96" rx="9" fill="#ede9fe" stroke="#7c3aed" stroke-width="1.5"/>
  <text class="box-label" x="237.0" y="351.0" text-anchor="middle">Command face</text>
  <text class="box-sub" x="237.0" y="368.0" text-anchor="middle">/task · /init · /optimize-prompt</text>
  <text class="box-file" x="237.0" y="385.0" text-anchor="middle">domains/commands.ts</text>
  <rect x="438" y="316" width="362" height="96" rx="9" fill="#ede9fe" stroke="#7c3aed" stroke-width="1.5"/>
  <text class="box-label" x="619.0" y="342.5" text-anchor="middle">Intent detection</text>
  <text class="box-sub" x="619.0" y="359.5" text-anchor="middle">instruction → keyword rules → past verdicts → light model</text>
  <text class="box-sub" x="619.0" y="376.5" text-anchor="middle">off by default: discriminator.auto</text>
  <text class="box-file" x="619.0" y="393.5" text-anchor="middle">domains/input.ts</text>
  <rect x="820" y="316" width="362" height="96" rx="9" fill="#ede9fe" stroke="#7c3aed" stroke-width="1.5"/>
  <text class="box-label" x="1001.0" y="342.5" text-anchor="middle">Prompt optimizer · star</text>
  <text class="box-sub" x="1001.0" y="359.5" text-anchor="middle">preview → confirm → backfill</text>
  <text class="box-sub" x="1001.0" y="376.5" text-anchor="middle">second click only re-opens (P14d)</text>
  <text class="box-file" x="1001.0" y="393.5" text-anchor="middle">domains/star.ts</text>
  <rect x="56" y="428" width="362" height="96" rx="9" fill="#ede9fe" stroke="#7c3aed" stroke-width="1.5"/>
  <text class="box-label" x="237.0" y="454.5" text-anchor="middle">Shear orchestration</text>
  <text class="box-sub" x="237.0" y="471.5" text-anchor="middle">T0 superseded · T0-R repair · run flush</text>
  <text class="box-sub" x="237.0" y="488.5" text-anchor="middle">results land as notice messages</text>
  <text class="box-file" x="237.0" y="505.5" text-anchor="middle">domains/shear.ts</text>
  <rect x="438" y="428" width="362" height="96" rx="9" fill="#ede9fe" stroke="#7c3aed" stroke-width="1.5"/>
  <text class="box-label" x="619.0" y="454.5" text-anchor="middle">Compaction orchestration</text>
  <text class="box-sub" x="619.0" y="471.5" text-anchor="middle">closed-task discovery → one call → shrink check → txn</text>
  <text class="box-sub" x="619.0" y="488.5" text-anchor="middle">boundary + pressure paths</text>
  <text class="box-file" x="619.0" y="505.5" text-anchor="middle">domains/compaction.ts</text>
  <rect x="820" y="428" width="362" height="96" rx="9" fill="#ede9fe" stroke="#7c3aed" stroke-width="1.5"/>
  <text class="box-label" x="1001.0" y="454.5" text-anchor="middle">Restore orchestration</text>
  <text class="box-sub" x="1001.0" y="471.5" text-anchor="middle">rebuild on session start · idempotent</text>
  <text class="box-sub" x="1001.0" y="488.5" text-anchor="middle">zero model calls · zero history edits</text>
  <text class="box-file" x="1001.0" y="505.5" text-anchor="middle">domains/restore.ts (P21a)</text>
  <rect x="56" y="612" width="270" height="88" rx="9" fill="#ccfbf1" stroke="#0d9488" stroke-width="1.5"/>
  <text class="box-label" x="191.0" y="643.0" text-anchor="middle">Task boundaries</text>
  <text class="box-sub" x="191.0" y="660.0" text-anchor="middle">intent-axis segments · closure = stable point</text>
  <text class="box-file" x="191.0" y="677.0" text-anchor="middle">units.ts · t0.ts</text>
  <rect x="342" y="612" width="270" height="88" rx="9" fill="#ccfbf1" stroke="#0d9488" stroke-width="1.5"/>
  <text class="box-label" x="477.0" y="643.0" text-anchor="middle">Task dossier</text>
  <text class="box-sub" x="477.0" y="660.0" text-anchor="middle">append-only dossier vN</text>
  <text class="box-file" x="477.0" y="677.0" text-anchor="middle">dossier.ts</text>
  <rect x="628" y="612" width="270" height="88" rx="9" fill="#ccfbf1" stroke="#0d9488" stroke-width="1.5"/>
  <text class="box-label" x="763.0" y="634.5" text-anchor="middle">Detection criteria</text>
  <text class="box-sub" x="763.0" y="651.5" text-anchor="middle">keyword rules → light-model fallback</text>
  <text class="box-sub" x="763.0" y="668.5" text-anchor="middle">discriminator v4: same work object (F13)</text>
  <text class="box-file" x="763.0" y="685.5" text-anchor="middle">judge.ts</text>
  <rect x="914" y="612" width="270" height="88" rx="9" fill="#ccfbf1" stroke="#0d9488" stroke-width="1.5"/>
  <text class="box-label" x="1049.0" y="643.0" text-anchor="middle">Project brief · prefix</text>
  <text class="box-sub" x="1049.0" y="660.0" text-anchor="middle">/init capture · stable prefix feed</text>
  <text class="box-file" x="1049.0" y="677.0" text-anchor="middle">init.ts · prefix.ts</text>
  <rect x="56" y="712" width="270" height="88" rx="9" fill="#ccfbf1" stroke="#0d9488" stroke-width="1.5"/>
  <text class="box-label" x="191.0" y="734.5" text-anchor="middle">T-entry write-time shaping</text>
  <text class="box-sub" x="191.0" y="751.5" text-anchor="middle">process logs only (≥120 lines, ≥16 KiB)</text>
  <text class="box-sub" x="191.0" y="768.5" text-anchor="middle">failures, listings, data queries verbatim (W2)</text>
  <text class="box-file" x="191.0" y="785.5" text-anchor="middle">shear/tool.ts</text>
  <rect x="342" y="712" width="270" height="88" rx="9" fill="#ccfbf1" stroke="#0d9488" stroke-width="1.5"/>
  <text class="box-label" x="477.0" y="743.0" text-anchor="middle">T0 superseded reads</text>
  <text class="box-sub" x="477.0" y="760.0" text-anchor="middle">read overwritten by a later write</text>
  <text class="box-file" x="477.0" y="777.0" text-anchor="middle">shear/index.ts</text>
  <rect x="628" y="712" width="270" height="88" rx="9" fill="#ccfbf1" stroke="#0d9488" stroke-width="1.5"/>
  <text class="box-label" x="763.0" y="743.0" text-anchor="middle">T0-R declaration repair</text>
  <text class="box-sub" x="763.0" y="760.0" text-anchor="middle">repair declaration reads only, never content</text>
  <text class="box-file" x="763.0" y="777.0" text-anchor="middle">shear/t0r.ts</text>
  <rect x="914" y="712" width="270" height="88" rx="9" fill="#ccfbf1" stroke="#0d9488" stroke-width="1.5"/>
  <text class="box-label" x="1049.0" y="734.5" text-anchor="middle">Run flush</text>
  <text class="box-sub" x="1049.0" y="751.5" text-anchor="middle">fold finished question/verify runs</text>
  <text class="box-sub" x="1049.0" y="768.5" text-anchor="middle">three conclusion tiers · absorption proof</text>
  <text class="box-file" x="1049.0" y="785.5" text-anchor="middle">shear/run.ts</text>
  <rect x="56" y="812" width="270" height="88" rx="9" fill="#ccfbf1" stroke="#0d9488" stroke-width="1.5"/>
  <text class="box-label" x="191.0" y="843.0" text-anchor="middle">Region rewrite</text>
  <text class="box-sub" x="191.0" y="860.0" text-anchor="middle">authoritative range → shrink check → replace</text>
  <text class="box-file" x="191.0" y="877.0" text-anchor="middle">compress/region.ts</text>
  <rect x="342" y="812" width="270" height="88" rx="9" fill="#ccfbf1" stroke="#0d9488" stroke-width="1.5"/>
  <text class="box-label" x="477.0" y="834.5" text-anchor="middle">Archive store</text>
  <text class="box-sub" x="477.0" y="851.5" text-anchor="middle">append-only · 10K cap (digest only)</text>
  <text class="box-sub" x="477.0" y="868.5" text-anchor="middle">content-addressed cache (F9d / F10)</text>
  <text class="box-file" x="477.0" y="885.5" text-anchor="middle">compress/store.ts</text>
  <rect x="628" y="812" width="270" height="88" rx="9" fill="#ccfbf1" stroke="#0d9488" stroke-width="1.5"/>
  <text class="box-label" x="763.0" y="834.5" text-anchor="middle">Pressure valve</text>
  <text class="box-sub" x="763.0" y="851.5" text-anchor="middle">0.35 × main-model context window</text>
  <text class="box-sub" x="763.0" y="868.5" text-anchor="middle">no window → 125K → safety net 100K (P20c)</text>
  <text class="box-file" x="763.0" y="885.5" text-anchor="middle">compress/pressure.ts</text>
  <rect x="914" y="812" width="270" height="88" rx="9" fill="#ccfbf1" stroke="#0d9488" stroke-width="1.5"/>
  <text class="box-label" x="1049.0" y="834.5" text-anchor="middle">Fuse</text>
  <text class="box-sub" x="1049.0" y="851.5" text-anchor="middle">floor 0.8×window · breaker 3</text>
  <text class="box-sub" x="1049.0" y="868.5" text-anchor="middle">emergency fold on overflow code</text>
  <text class="box-file" x="1049.0" y="885.5" text-anchor="middle">compress/fuse.ts</text>
  <rect x="56" y="912" width="270" height="88" rx="9" fill="#ccfbf1" stroke="#0d9488" stroke-width="1.5"/>
  <text class="box-label" x="191.0" y="934.5" text-anchor="middle">Product contract v3</text>
  <text class="box-sub" x="191.0" y="951.5" text-anchor="middle">digest ≤80 chars + steps ≤120 (zero pointers)</text>
  <text class="box-sub" x="191.0" y="968.5" text-anchor="middle">hot tail → archive · errors excluded (F10)</text>
  <text class="box-file" x="191.0" y="985.5" text-anchor="middle">compress/product.ts</text>
  <rect x="342" y="912" width="270" height="88" rx="9" fill="#ccfbf1" stroke="#0d9488" stroke-width="1.5"/>
  <text class="box-label" x="477.0" y="934.5" text-anchor="middle">Boundary assembler</text>
  <text class="box-sub" x="477.0" y="951.5" text-anchor="middle">dual-channel coords · version patch-chain remap</text>
  <text class="box-sub" x="477.0" y="968.5" text-anchor="middle">read-from-disk · HT soft gate (P17c)</text>
  <text class="box-file" x="477.0" y="985.5" text-anchor="middle">assemble/</text>
  <rect x="628" y="912" width="270" height="88" rx="9" fill="#ccfbf1" stroke="#0d9488" stroke-width="1.5"/>
  <text class="box-label" x="763.0" y="934.5" text-anchor="middle">Restore rebuild</text>
  <text class="box-sub" x="763.0" y="951.5" text-anchor="middle">step order · entity audit · dual-source equivalence</text>
  <text class="box-sub" x="763.0" y="968.5" text-anchor="middle">degrade only, never invent</text>
  <text class="box-file" x="763.0" y="985.5" text-anchor="middle">restore/</text>
  <rect x="914" y="912" width="270" height="88" rx="9" fill="#ccfbf1" stroke="#0d9488" stroke-width="1.5"/>
  <text class="box-label" x="1049.0" y="934.5" text-anchor="middle">Ledger · estimator</text>
  <text class="box-sub" x="1049.0" y="951.5" text-anchor="middle">replayable metric fold · two-bucket density</text>
  <text class="box-sub" x="1049.0" y="968.5" text-anchor="middle">CJK 1.5 / other 2.9 chars per token (F8a)</text>
  <text class="box-file" x="1049.0" y="985.5" text-anchor="middle">ledger/* · meter/</text>
  <rect x="56" y="1134" width="178" height="76" rx="9" fill="#dcfce7" stroke="#16a34a" stroke-width="1.5"/>
  <text class="box-label" x="145.0" y="1159.0" text-anchor="middle">events.ts</text>
  <text class="box-sub" x="145.0" y="1176.0" text-anchor="middle">H1 firehose → bypass queue</text>
  <text class="box-sub" x="145.0" y="1193.0" text-anchor="middle">never blocks append</text>
  <rect x="246" y="1124" width="178" height="76" rx="9" fill="#dcfce7" stroke="#16a34a" stroke-width="1.5"/>
  <text class="box-label" x="335.0" y="1149.0" text-anchor="middle">agent-step.ts</text>
  <text class="box-sub" x="335.0" y="1166.0" text-anchor="middle">H2/H3/H9 pre-step</text>
  <text class="box-sub" x="335.0" y="1183.0" text-anchor="middle">pressure · restore funnel</text>
  <rect x="436" y="1124" width="178" height="76" rx="9" fill="#dcfce7" stroke="#16a34a" stroke-width="1.5"/>
  <text class="box-label" x="525.0" y="1149.0" text-anchor="middle">history.ts</text>
  <text class="box-sub" x="525.0" y="1166.0" text-anchor="middle">H4/H5 only history channel</text>
  <text class="box-sub" x="525.0" y="1183.0" text-anchor="middle">compaction txn · pair guard</text>
  <rect x="626" y="1124" width="178" height="76" rx="9" fill="#dcfce7" stroke="#16a34a" stroke-width="1.5"/>
  <text class="box-label" x="715.0" y="1149.0" text-anchor="middle">tools.ts</text>
  <text class="box-sub" x="715.0" y="1166.0" text-anchor="middle">H6 shear hook</text>
  <text class="box-sub" x="715.0" y="1183.0" text-anchor="middle">content override · metering</text>
  <rect x="816" y="1124" width="178" height="76" rx="9" fill="#dcfce7" stroke="#16a34a" stroke-width="1.5"/>
  <text class="box-label" x="905.0" y="1149.0" text-anchor="middle">meter.ts</text>
  <text class="box-sub" x="905.0" y="1166.0" text-anchor="middle">H7 metric replay</text>
  <text class="box-sub" x="905.0" y="1183.0" text-anchor="middle">ledger fields recomputable</text>
  <rect x="1006" y="1124" width="178" height="76" rx="9" fill="#dcfce7" stroke="#16a34a" stroke-width="1.5"/>
  <text class="box-label" x="1095.0" y="1149.0" text-anchor="middle">storage.ts</text>
  <text class="box-sub" x="1095.0" y="1166.0" text-anchor="middle">H10 durable KV</text>
  <text class="box-sub" x="1095.0" y="1183.0" text-anchor="middle">versioned read/write · CAS</text>
  <rect x="56" y="1222" width="216" height="76" rx="9" fill="#dcfce7" stroke="#16a34a" stroke-width="1.5"/>
  <text class="box-label" x="164.0" y="1247.0" text-anchor="middle">llm.ts</text>
  <text class="box-sub" x="164.0" y="1264.0" text-anchor="middle">H12 auxiliary calls</text>
  <text class="box-sub" x="164.0" y="1281.0" text-anchor="middle">purpose route · usage receipt</text>
  <rect x="284" y="1212" width="216" height="76" rx="9" fill="#dcfce7" stroke="#16a34a" stroke-width="1.5"/>
  <text class="box-label" x="392.0" y="1237.0" text-anchor="middle">skills.ts</text>
  <text class="box-sub" x="392.0" y="1254.0" text-anchor="middle">H13 skill catalog</text>
  <text class="box-sub" x="392.0" y="1271.0" text-anchor="middle">reference guard lookup</text>
  <rect x="512" y="1212" width="216" height="76" rx="9" fill="#dcfce7" stroke="#16a34a" stroke-width="1.5"/>
  <text class="box-label" x="620.0" y="1237.0" text-anchor="middle">files.ts</text>
  <text class="box-sub" x="620.0" y="1254.0" text-anchor="middle">H15 read-from-disk</text>
  <text class="box-sub" x="620.0" y="1271.0" text-anchor="middle">version patch-chain remap</text>
  <rect x="740" y="1212" width="216" height="76" rx="9" fill="#dcfce7" stroke="#16a34a" stroke-width="1.5"/>
  <text class="box-label" x="848.0" y="1237.0" text-anchor="middle">star-bridge.ts</text>
  <text class="box-sub" x="848.0" y="1254.0" text-anchor="middle">H11 star RPC bridge</text>
  <text class="box-sub" x="848.0" y="1271.0" text-anchor="middle">star.preview / apply</text>
  <rect x="968" y="1212" width="216" height="76" rx="9" fill="#dcfce7" stroke="#16a34a" stroke-width="1.5"/>
  <text class="box-label" x="1076.0" y="1237.0" text-anchor="middle">logger · diag-sink</text>
  <text class="box-sub" x="1076.0" y="1254.0" text-anchor="middle">H14 ignorable facts</text>
  <text class="box-sub" x="1076.0" y="1271.0" text-anchor="middle">JSONL · 2 MiB rolling</text>
  <rect x="56" y="1368" width="362" height="68" rx="9" fill="#fef3c7" stroke="#d97706" stroke-width="1.5"/>
  <text class="box-label" x="237.0" y="1389.0" text-anchor="middle">Durable KV — storageDomain (H10)</text>
  <text class="box-sub" x="237.0" y="1406.0" text-anchor="middle">task dossier · project brief · boundary archive · artifacts</text>
  <text class="box-sub" x="237.0" y="1423.0" text-anchor="middle">scoped by session workspace</text>
  <rect x="438" y="1368" width="362" height="68" rx="9" fill="#fef3c7" stroke="#d97706" stroke-width="1.5"/>
  <text class="box-label" x="619.0" y="1389.0" text-anchor="middle">Session facts — ignorable JSONL</text>
  <text class="box-sub" x="619.0" y="1406.0" text-anchor="middle">context-economy/*: task-boundary · judge-* · shear-*</text>
  <text class="box-sub" x="619.0" y="1423.0" text-anchor="middle">compress-run · restore-*</text>
  <rect x="820" y="1368" width="362" height="68" rx="9" fill="#fef3c7" stroke="#d97706" stroke-width="1.5"/>
  <text class="box-label" x="1001.0" y="1389.0" text-anchor="middle">Diagnostics log</text>
  <text class="box-sub" x="1001.0" y="1406.0" text-anchor="middle">logs/context-economy.log · 2 MiB rolling</text>
  <text class="box-sub" x="1001.0" y="1423.0" text-anchor="middle">for agent self-review via Read/grep</text>
  <rect x="56" y="1504" width="556" height="76" rx="9" fill="#fffbeb" stroke="#f59e0b" stroke-width="1.5" stroke-dasharray="7 4"/>
  <text class="box-label" x="334.0" y="1520.5" text-anchor="middle">B series · branch/merge context</text>
  <text class="box-sub" x="334.0" y="1537.5" text-anchor="middle">checkout/merge — trading space for efficiency · prior: 5.5% parallel face</text>
  <text class="box-sub" x="334.0" y="1554.5" text-anchor="middle">M0 gate: isolatable live context ≥30%, break cost &lt;20% of saving</text>
  <text class="box-file" x="334.0" y="1571.5" text-anchor="middle">docs/implement/TODO.md §3</text>
  <rect x="628" y="1504" width="556" height="76" rx="9" fill="#fffbeb" stroke="#f59e0b" stroke-width="1.5" stroke-dasharray="7 4"/>
  <text class="box-label" x="906.0" y="1520.5" text-anchor="middle">R series · reasoning-replay stripping</text>
  <text class="box-sub" x="906.0" y="1537.5" text-anchor="middle">compounding 76.5× / 104.5× · turn-boundary full strip saves 1.5%</text>
  <text class="box-sub" x="906.0" y="1554.5" text-anchor="middle">exit gate: protocol probe + gateway re-encode + behaviour A/B</text>
  <text class="box-file" x="906.0" y="1571.5" text-anchor="middle">docs/implement/TODO.md §3</text>

  <rect x="56" y="1012" width="1128" height="40" rx="9" fill="#fff7ed" stroke="#fdba74" stroke-width="1.5"/>
  <text class="discipline" x="620" y="1037" text-anchor="middle">Discipline: cut points fixed before results are booked (T-entry) · no behavioural signals · failure = keep · out-of-band (internal flags never enter model view) · byte-reproducible</text>

  <g fill="none" stroke="#475569" stroke-width="2">
    <path d="M237,228 V308" marker-end="url(#arrow)"/>
    <path d="M619,228 V308" marker-end="url(#arrow)"/>
    <path d="M1001,228 V308" marker-end="url(#arrow)"/>
    <path d="M237,524 V604" marker-end="url(#arrow)"/>
    <path d="M1001,524 V604" marker-end="url(#arrow)"/>
    <path d="M620,1052 V1076" marker-end="url(#arrow)"/>
    <path d="M620,1298 V1328" marker-end="url(#arrow)"/>
  </g>

  <text class="flow-note" x="566" y="272" text-anchor="end">H1 firehose → bypass queue</text>
  <text class="flow-note" x="1009" y="272" text-anchor="start">star click (H11)</text>
  <text class="flow-note" x="612" y="1078" text-anchor="end">core + domains reach harness state only via platform</text>
  <text class="flow-note" x="628" y="1326" text-anchor="start">persist · emit facts · log</text>

  <text class="footer" x="40" y="1606">Solid = implemented (R1–R4, incl. F1–F13 / P14c·d / P17c / P20c field fixes). Dashed = pending validation. H* = harness hooks (docs/10-wiring.md). Retired designs (N-series negotiation shear · T-loop) → docs/legacy.md.</text>
</svg>
